<?xml version="1.0" encoding="utf-8"?>
<!-- Generator: Adobe Illustrator 22.0.0, SVG Export Plug-In . SVG Version: 6.00 Build 0)  -->
<svg version="1.1" id="Layer_1" xmlns="http://www.w3.org/2000/svg" x="0px"
     y="0px"
     viewBox="0 0 2066 640" style="enable-background:new 0 0 2066 640;" xml:space="preserve">
<style type="text/css">
	.st0{fill:#58585A;}
	.st1{fill:#2E3192;}
</style>
    <g>
	<path class="st0" d="M321.9,51c21.8,0,43.7,0,65.5,0c0,100.7,0,201.3,0,302c0,19.4-14.4,37.5-33.2,42.1
		c-10.5,2.5-21.5,0.9-32.2,1.4C321.8,281.4,321.9,166.2,321.9,51z"/>
        <path class="st0" d="M178.3,164.2c13.4,0.3,27.1-1.2,40.3,2.3c15.6,4,29.8,13.6,39.2,26.7c8.7,12.1,13.3,26.9,13.2,41.8
		c0,30,0,60,0,90c0.1,9.3-1.5,18.6-4.9,27.2c-8,21.1-27,37.5-49,42.4c-9.8,2.5-20,1.8-30.1,1.9c-16.3,0-32.7,0-49,0
		c-16.3-0.2-32.5-6-45-16.6c-13.1-11-21.9-27.1-24.2-44.1C68,330,68.2,324,68.2,318c0-29.2,0-58.3,0-87.5c21.8-0.1,43.7,0,65.5,0
		c0.1,27.2-0.1,54.3,0.1,81.5c0.1,9.8,8.4,18.5,18.2,18.9c11.7,0.2,23.4,0.1,35.1,0c9.9-0.3,18.4-9,18.4-18.9
		c0.1-20.6,0-41.3,0-61.9c0.2-7.6-4.2-15.1-11.2-18.3c-4.4-2.2-9.5-1.9-14.3-1.9c-11.6,0-23.1,0-34.6,0
		C156.3,208,167.3,186.1,178.3,164.2z"/>
        <path class="st0" d="M484.9,166.3c21.9,0.1,43.7-0.1,65.6,0.1c-0.1,53.5,0,107-0.1,160.6c-0.2,17.2-6.7,34.3-18.4,47
		c-11.8,12.9-28.6,21-46,22.4c-9.4,0.5-18.8,0.1-28.3,0.2c-11-21.9-22-43.8-33-65.7c13.8-0.1,27.6,0.1,41.4-0.1
		c9.9-0.1,18.6-8.9,18.7-18.8C484.9,263.5,484.7,214.9,484.9,166.3z"/>
        <path class="st0" d="M717.4,166.3c47.1,0,94.3,0,141.4,0c0,21.9,0,43.9,0,65.8c-47.2,0-94.3,0.1-141.5,0
		C717.4,210.2,717.4,188.2,717.4,166.3z"/>
        <path class="st0" d="M978.3,166.3c21.8,0,43.7,0,65.5,0c0,34.2,0,68.5,0,102.7c-0.1,20.6,0.2,41.3-0.2,61.9
		c38.1,0,76.3,0.1,114.4-0.1c10-0.1,18.7-8.9,18.8-18.8c0.2-48.6-0.1-97.1,0.1-145.7c21.8,0.1,43.7,0,65.5,0.1c0,31.9,0,63.8,0,95.7
		c-0.1,23,0.3,45.9-0.2,68.9c36.6,0,73.3,0,109.9,0c10.2,0.2,19.4-8.7,19.4-18.9c0-48.5,0-97.1,0-145.6c21.8-0.1,43.7,0,65.5,0
		c0.1,53.2,0,106.5,0,159.7c0.1,18.6-7.4,37.2-20.7,50.3c-12.9,12.9-31.1,20.2-49.3,20.2c-42.5,0-85,0.1-127.4,0
		c-6.3-6.4-12.8-12.5-19.1-19c-12.8,11.8-30,18.9-47.5,19c-42.6,0-85.1,0.1-127.7,0c-7.5-6.5-14.3-14-21.5-20.9
		c-10.6,10.8-24.7,18-39.6,20.1c-7,1.1-14.2,0.8-21.2,0.8c-102.8,0-205.5,0-308.2,0c-12.4-21.9-24.9-43.8-37.4-65.6
		c113.9,0,227.8,0,341.6,0c10.5,0.2,19.7-9.4,19.3-19.8C978.3,262.8,978.3,214.5,978.3,166.3z"/>
        <path class="st0" d="M922.6,444.6c9.5-3.8,19.2-7.1,28.8-10.6c0.3,1.8,0.6,3.5,1,5.3c-9.8,3.6-19.7,7.2-29.5,10.7
		C922.9,448.2,922.8,446.4,922.6,444.6z"/>
        <path class="st0" d="M1053.6,438.8c47.1,0,94.3,0,141.4,0c0,22,0.1,43.9,0,65.8c-47.1-0.1-94.3,0-141.4,0
		C1053.6,482.6,1053.6,460.7,1053.6,438.8z"/>
        <path class="st0" d="M1288.6,438.8c21.9,0,43.7,0,65.6,0c0,21.9-0.1,43.8,0.1,65.7c-21.9,0.3-43.8,0.1-65.7,0.1
		C1288.6,482.6,1288.6,460.7,1288.6,438.8z"/>
        <path class="st0" d="M923.5,457.8c10.4-3.8,20.6-7.9,31-11.8c0.6,2.5,1.1,5.1,1.6,7.6c-8.4,3.1-16.8,6.3-25.1,9.5
		c5.2,5.1,10.4,10.3,15.6,15.4c3.1,3.2,6.4,6.8,7.2,11.4c0.7,3.9,0.4,8.4-2.4,11.4c-2.8,3.1-7.3,3.7-11.3,3.7c-13.7,0-27.4,0-41.1,0
		c-3.2,0-6.7-0.4-9.3-2.6c-3.3-2.8-4.2-7.3-4.2-11.4c0-14,0-28,0-42c2.5,0,5,0,7.5,0c0,13,0,26,0,39c0,2.7,0.2,5.8,2.4,7.7
		c1.9,1.5,4.4,1.1,6.7,1.2c13-0.1,26,0.1,39-0.1c2.6,0.1,5.3-2.1,4.9-4.9c0.1-2.9-1.9-5.3-3.8-7.1c-6.3-6.1-12.4-12.4-18.7-18.4
		C923.3,463.5,923.3,460.6,923.5,457.8z"/>
        <path class="st0" d="M110,449c2.5,0,5,0,7.5,0c0,17.3,0,34.6,0,52c0.2,5.2-0.7,10.6-3.4,15.2c-3.6,6.5-10.7,10.6-18.1,10.8
		c-6.4,0.1-13.4,0.5-19-3.1c-6.4-3.9-9.3-11.7-9.5-18.9c-0.1-5.9-0.1-11.9,0-17.8c2.5,0,5,0,7.4,0c0.3,7.1-0.6,14.3,0.6,21.3
		c1,5.5,5.8,9.7,11.3,10.2c5.6,0.4,11.8,0.9,16.7-2.2c4.5-2.9,6.5-8.4,6.4-13.6C110,485,110,467,110,449z"/>
        <path class="st0" d="M127.5,449c2.5,0,5,0,7.5,0c0.1,13.7-0.1,27.4,0.1,41.1c-0.1,3.3,2.2,7.1,5.9,6.8c8.4,0.1,16.7,0.1,25.1,0
		c3.1,0.2,6.4-1.8,6.8-5.1c0.4-4.6,0.1-9.2,0.2-13.8c2.5-0.1,5.1,0,7.6,0.1c0,4.6-0.3,9.2,0.1,13.8c0.4,3.4,4.1,5.2,7.2,5
		c13.1,0,26.1,0,39.2,0c3.1,0.2,6.4-1.8,6.7-5c0.4-4.6,0.1-9.2,0.2-13.9c2.5-0.1,5.1-0.1,7.6,0.1c-0.1,4.6-0.4,9.2,0.1,13.8
		c0.4,3.4,4,5.1,7.1,4.9c8.1-0.1,16.6,0.6,24.1-3.1c5.4-2.8,10.5-6,15.8-9c-1.3-3.3-3.8-6.6-7.6-6.7c-7.5-0.4-15-0.1-22.5-0.2
		c0.2-2.7,0.3-5.3,0.5-8c7.3,0,14.6-0.1,21.9,0c3.6,0,7.3,1.4,9.8,4.1c3.6,3.8,5.2,9,6.5,14.1c-2.1,1.2-4.1,2.4-6.2,3.6
		c1.4,2.5,3.6,5,6.8,5c5.4,0.2,10.8,0.1,16.2,0c2.9,0,5.7-2,6.1-4.9c0.5-4.7,0-9.4,0.3-14c2.5,0.1,4.9,0.1,7.4,0.1
		c-0.6,7.5,1.9,16.3-3.2,22.8c-4.4,5.1-11.7,4.2-17.8,4.2c-4.9-0.2-10.1,0.8-14.7-1.4c-3.5-1.6-5.2-5.3-6.6-8.6
		c-6,3.4-11.8,7.6-18.7,8.9c-6.6,1.3-13.4,1.1-20.1,0.9c-3.9,0-7.3-2.3-9.4-5.5c-2.2,3.6-6.2,5.8-10.4,5.6
		c-13.7,0-27.4,0.1-41.1-0.1c-3.9,0-7.4-2.3-9.5-5.5c-2,3.2-5.5,5.5-9.4,5.5c-8,0.2-16.1,0-24.1,0.1c-3.7,0-7.7,0.1-10.8-2.2
		c-3.7-2.7-4.7-7.5-4.7-11.8C127.5,477,127.5,463,127.5,449z"/>
        <path class="st0" d="M443.4,449.1c2.5-0.1,5-0.1,7.6-0.1c0,18.7,0,37.3,0,56c-2.5,0-5,0-7.5-0.1
		C443.5,486.3,443.5,467.7,443.4,449.1z"/>
        <path class="st0"
              d="M599.5,449c2.5,0,5,0,7.5,0c0,18.7,0,37.3,0,56c-2.5,0-5,0-7.5-0.1C599.5,486.3,599.5,467.7,599.5,449z"/>
        <path class="st0" d="M561,452c3,0,6,0,9,0c0,2.7,0,5.3,0,8c-3,0-6,0-9,0C561,457.3,561,454.7,561,452z"/>
        <path class="st0" d="M399,459c3,0,6,0,9,0c0,2.7,0,5.3,0,8c-3,0-6,0-9,0C399,464.3,399,461.7,399,459z"/>
        <path class="st0"
              d="M165,459.5c2.8,0,5.7,0,8.5,0c0,2.5,0,5,0,7.5c-2.8,0-5.7,0-8.5,0C165,464.5,165,462,165,459.5z"/>
        <path class="st0"
              d="M177.5,459.5c2.8,0,5.7,0,8.5,0c0,2.5,0,5,0,7.5c-2.8,0-5.7,0-8.5,0C177.5,464.5,177.5,462,177.5,459.5z"/>
        <g>
		<path class="st0" d="M850,465.5c1.7-1.9,3.4-3.8,5.1-5.6c5.9,6,12.2,11.9,16.8,19c3.7,5.7,4.5,13.7,0.4,19.3
			c-5.1,7.1-15.6,8.4-23,4.5c-4.6-2.4-7.2-7.7-6.7-12.8c0.3-8.3,6.4-14.5,11.7-20.2C852.8,468.4,851.5,467,850,465.5z M851,485
			c-1.3,2.9-1.4,6.7,0.8,9.2c4.5,4.9,14.8,2.9,15.7-4.3c0.5-6.2-4.8-10.6-8.7-14.7C855.8,478.2,852.7,481.2,851,485z"/>
	</g>
        <path class="st0" d="M354.3,463c5.9,6.7,11.6,13.5,17.4,20.3c3.5,4.1,5.3,10.3,2.8,15.4c-2.1,4.3-7,6.3-11.5,6.4
		c-8.7,0.1-17.4,0-26.1,0c-0.2-2.7-0.4-5.4-0.5-8c8.2,0,16.4,0,24.6,0c2.2,0,4.8-0.8,5.7-3.1c0.9-2.4-0.4-4.8-1.9-6.6
		c-5.4-6.2-10.8-12.4-16.3-18.6C350.5,466.8,352.4,464.9,354.3,463z"/>
        <ellipse class="st0" cx="497.8" cy="466.8" rx="6" ry="5.3"/>
        <ellipse class="st0" cx="509.8" cy="466.8" rx="6" ry="5.3"/>
        <path class="st0" d="M627.5,468.7c1.9-2,3.9-3.9,6-5.7c5.7,6.8,11.6,13.5,17.3,20.3c3.5,4.1,5.3,10.3,2.8,15.4
		c-2.1,4.3-7.1,6.3-11.6,6.3c-8.7,0.1-17.3,0-26,0c-0.2-2.7-0.3-5.4-0.5-8c8.2,0,16.4,0,24.6,0c2.2,0,4.8-0.8,5.6-3.1
		c0.9-2.4-0.3-4.8-1.9-6.6C638.4,481,633,474.9,627.5,468.7z"/>
        <path class="st0" d="M999.4,463c5.4,6.1,10.7,12.4,16,18.6c3.9,4.1,6.7,10,4.8,15.7c-1.6,5.1-7.1,7.8-12.2,7.8
		c-8.7,0.1-17.4,0-26,0c-0.2-2.7-0.4-5.4-0.5-8c7.9,0,15.7,0,23.6,0c2.3,0,5.1-0.3,6.4-2.5c1.3-2.2,0.3-4.9-1.2-6.6
		c-5.5-6.5-11.3-12.7-16.7-19.3C995.5,466.7,997.5,464.9,999.4,463z"/>
        <path class="st0" d="M551.1,470c7,0,14,0,20.9,0c3.7-0.1,7.5,1.1,10.2,3.7c3.9,3.8,5.5,9.2,6.8,14.4c-7,4.3-14.2,8.5-21.4,12.6
		c-7.5,4.3-16.3,4.3-24.7,4.3c-4.9,0.4-10.4-1-13-5.6c-2.2,3.3-5.9,5.7-10,5.6c-11.4,0-22.8,0.2-34.1-0.1c-5.7-0.1-11-4.2-12-9.9
		c-0.9-5.6-0.2-11.3-0.4-17c2.5,0,5,0,7.5,0c0.2,4.9-0.5,9.8,0.5,14.6c0.8,3.2,4.4,4.4,7.4,4.3c10.3,0,20.7,0.1,31.1,0
		c2.9,0.1,6-1.9,6.3-4.9c0.5-4.5,0.1-9.1,0.2-13.7c2.5,0,5,0,7.5,0c0.2,4.5-0.2,9.1,0.2,13.6c0.4,3.2,3.8,5.1,6.8,5
		c8.2,0,17,0.6,24.5-3.4c5.1-2.8,10-5.8,15-8.6c-1.1-1.9-1.9-4.2-3.9-5.4c-2.3-1.5-5-1.4-7.6-1.4c-6.1,0-12.3,0-18.4,0
		C550.8,475.3,551,472.7,551.1,470z"/>
        <g>
		<path class="st0" d="M792.7,477.7c5.9-7.9,20.3-7.4,24.9,1.6c3.6,7,2,15.1,2.4,22.6c0.5,8.8-3.5,18.3-11.6,22.4
			c-6.2,3.5-13.5,2.4-20.3,2.6c-0.2-2.7-0.3-5.3-0.5-8c6.3-0.3,13.3,1.1,18.9-2.5c3.9-2.4,5.7-7,6.4-11.3
			c-5.8-0.5-11.8,0.6-17.3-1.7c-3.4-1.4-5.6-4.7-6.2-8.3C788.5,489.2,788.9,482.6,792.7,477.7z M798.5,482.4
			c-2.6,3.5-3.3,9.1-0.5,12.6c4.3,3,9.9,1.5,14.8,1.9c-0.1-4.2,0.5-8.6-1.2-12.6C809.6,479.4,802,478.5,798.5,482.4z"/>
	</g>
        <path class="st0" d="M400.5,478c2.5,0,5,0,7.5,0c0,8.7,0,17.4,0,26.1c-0.1,8.4-4.6,16.9-12.3,20.7c-4.7,2.5-10.2,2.4-15.4,2.2
		c-0.2-2.7-0.3-5.3-0.5-7.9c4.9,0,10.1,0.1,14.3-2.8c4.3-2.9,6.4-8.2,6.3-13.2C400.5,494.7,400.5,486.4,400.5,478z"/>
        <path class="st0" d="M425.5,478c2.5,0,5,0,7.5,0c0,8.7,0,17.4,0,26c-0.1,8.1-4.3,16.4-11.6,20.4c-3.8,2.2-8.3,2.7-12.6,2.7
		c-0.2-2.7-0.4-5.3-0.6-8c3.6-0.1,7.3-0.4,10.4-2.4c4.7-2.8,6.9-8.4,6.8-13.7C425.5,494.7,425.5,486.4,425.5,478z"/>
        <path class="st0" d="M666.5,504c0.2-8.7-0.1-17.4,0.1-26c2.5,0.1,4.9,0.1,7.4,0.1c0.1,4.6-0.3,9.3,0.2,14c0.5,3.1,3.8,5.1,6.8,5
		c22.3,0.1,44.7,0,67,0c3.6,0.2,8.6,0.2,10-4c1-4.9,0.3-9.9,0.5-14.9c2.5-0.1,5-0.1,7.5-0.1c-0.3,6,0.7,12.2-0.7,18.2
		c-1.4,5.8-7.5,9.1-13.2,8.8c-23.3,0.1-46.7,0-70,0c-3.1,0.2-6.1-0.8-8.3-3c0.5,8.7-3.4,18.1-11.3,22.4c-4.8,2.9-10.6,2.8-16,2.6
		c-0.2-2.6-0.3-5.3-0.5-8c4.6,0,9.6,0.2,13.7-2.3C664,514.1,666.4,509,666.5,504z"/>
        <path class="st0" d="M966.5,504c0.2-8.7-0.1-17.4,0.1-26c2.5,0,4.9,0.1,7.4,0.1c0,8.7,0,17.4,0,26.1c0,8.4-4.6,17-12.3,20.7
		c-4.7,2.5-10.2,2.3-15.3,2.2c-0.2-2.7-0.3-5.3-0.5-7.9c4.9,0,10.1,0.1,14.3-2.8C964.3,513.6,966.4,508.7,966.5,504z"/>
        <path class="st0"
              d="M225,515.5c2.8,0,5.5,0,8.3,0c0,2.5,0,5,0,7.5c-2.8,0-5.5,0-8.3,0C225,520.5,225,518,225,515.5z"/>
        <path class="st0" d="M238,515.5c2.7,0,5.3,0,8,0c0,2.5,0,5,0,7.5c-2.7,0-5.3,0-8,0C238,520.5,238,518,238,515.5z"/>
        <ellipse class="st0" cx="273.5" cy="520" rx="6.4" ry="5.7"/>
        <path class="st0"
              d="M305,515.5c2.8,0,5.5,0,8.3,0c0,2.5,0,5,0,7.5c-2.8,0-5.5,0-8.3,0C305,520.5,305,518,305,515.5z"/>
        <path class="st0" d="M318,515.5c2.7,0,5.3,0,8,0c0,2.5,0,5,0,7.5c-2.7,0-5.3,0-8,0C318,520.5,318,518,318,515.5z"/>
        <path class="st0"
              d="M743.5,515.5c2.8,0,5.7,0,8.5,0c0,2.5,0,5,0,7.5c-2.8,0-5.7,0-8.5,0C743.5,520.5,743.5,518,743.5,515.5z"/>
        <path class="st0"
              d="M756,515.5c2.8,0,5.7,0,8.5,0c0,2.5,0,5,0,7.5c-2.8,0-5.7,0-8.5,0C756,520.5,756,518,756,515.5z"/>
        <path class="st0"
              d="M749.5,527.5c2.8,0,5.7,0,8.5,0c0,2.5,0,5,0,7.5c-2.8,0-5.7,0-8.5,0C749.5,532.5,749.5,530,749.5,527.5z"/>
</g>
    <g>
	<path class="st1" d="M1588.3,65.6c57.2-0.1,114.5,0,171.7,0c18.2-0.1,36.5,4.4,52.6,12.9c9.9,5.4,21.2,8.5,32.5,8.7
		c13.4,0.2,26.7-0.1,40.1,0.2c29.9,1.2,58.6,16.5,77,40c-40.1,0-80.1,0.2-120.1-0.1c-13.3-0.5-26.4-3.5-38.7-8.7
		c-6.8-2.8-13-6.9-20-9.1c-8.5-2.9-17.5-4-26.4-3.8c-61.5,0-123,0-184.5,0C1577.7,92.3,1583.1,79,1588.3,65.6z"/>
        <path class="st1" d="M1641.9,166.1c5.3-13.4,10.5-26.8,15.9-40.1c25.4,0.1,50.8,0,76.2,0c15.6,0,31.1,3.3,45.3,9.7
		c4.8,2.1,9.3,4.9,14.3,6.8c8.7,3.5,18.1,5.2,27.4,5.1c51.3,0,102.6,0,153.8,0c6.1,12.5,9.9,26.2,11.2,40.1c-55.3,0-110.7,0-166,0
		c-15,0-30-3.1-43.7-9c-5.8-2.4-11.2-5.8-17.1-8c-8.3-3.2-17.2-4.7-26.1-4.7C1702.7,166,1672.3,166.1,1641.9,166.1z"/>
        <path class="st1" d="M1588.3,186.4c43.6,0,87.1,0,130.7,0c18.8-0.3,37.7,4.3,54.3,13.3c10.3,5.5,22,8.4,33.7,8.4
		c59.7,0,119.3,0,179,0c-1.2,13.9-5,27.6-11.1,40.1c-55.6,0-111.2,0-166.9,0c-18.5,0.2-37-4.3-53.3-13c-10.3-5.6-21.9-8.7-33.6-8.7
		c-49.5,0-99,0-148.6,0C1577.8,213.1,1583,199.7,1588.3,186.4z"/>
        <path class="st1" d="M1652,287c5.3-13.4,10.5-26.8,15.9-40.1c14.4,0,28.8,0,43.1,0c18.4,0.3,36.5,5.6,52.6,14.5
		c10,5,21.3,7.3,32.4,7.2c55.4,0,110.7,0,166.1,0c-15.6,19.8-38.3,33.9-63.2,38.4c-11.2,2.2-22.6,1.7-33.9,1.7
		c-19.4,0-38.7,0-58.1,0c-8,0-16,0.2-23.9-0.6c-13.5-1.4-26.7-5.3-38.7-11.4c-6.8-3.7-13.9-6.7-21.5-8.2c-8.5-1.9-17.3-1.4-25.9-1.5
		C1681.9,287,1666.9,287,1652,287z"/>
        <path class="st1" d="M1618.9,351c5.3-13.4,10.5-26.8,15.9-40.1c16.4,0.1,32.8,0,49.2,0c8.1,0.1,16.1-0.3,24.1,0.7
		c13.7,1.5,27,5.7,39.2,12.1c6.5,3.5,13.5,6.2,20.8,7.6c8.5,1.8,17.2,1.3,25.9,1.3c33,0,66,0,99.1,0c32.7-1.2,65.1,14.4,85.1,40.1
		c-65.8,0-131.5,0-197.2,0c-15.2-0.1-30.3-3.3-44.2-9.5c-5-2.2-9.7-5.1-14.8-7.1c-8.2-3.3-17.1-5-26-5.1
		C1670.3,351,1644.6,351.1,1618.9,351z"/>
        <path class="st1" d="M1603.6,371.4c23.8,0,47.6-0.3,71.3,0.1c12,0.6,23.8,3.3,35,7.7c8.8,3.4,16.7,8.9,26,11.2
		c11.4,3.4,23.4,2.5,35.1,2.6c73.3,0,146.6,0,219.8,0c6.1,12.5,9.9,26.2,11.2,40.1c-82.3,0-164.7,0-247,0c-14.8,0-29.7-3-43.3-8.8
		c-6.3-2.6-12.1-6.3-18.6-8.6c-8-3-16.6-4.3-25.1-4.3c-26.7,0-53.4,0-80.1,0C1593.1,398.1,1598.5,384.8,1603.6,371.4z"/>
        <path class="st1" d="M1541.9,431.8c38.7,0,77.4,0,116.1,0c13.1,0.3,26.2,2.9,38.4,7.8c8.7,3.3,16.6,8.8,25.7,11.1
		c11.6,3.6,23.9,2.7,35.9,2.8c81.3,0,162.7,0,244,0c-1.1,13.9-4.9,27.6-11.1,40.2c-82.9-0.1-165.9,0-248.8,0
		c-19.8,0.2-39.4-5.5-56.6-15.1c-9.5-4.5-20-6.7-30.4-6.6c-42.9,0-85.9-0.1-128.8,0C1531.3,458.5,1536.7,445.1,1541.9,431.8z"/>
        <path class="st1" d="M1603.6,492.3c13.5-0.2,26.9,0,40.4-0.1c18.5,0,36.8,4.9,53,13.7c10.1,5.3,21.6,8,33,8
		c82.7,0.1,165.4,0,248.1,0c-15.9,20.3-39.5,34.6-65,38.7c-10.9,1.9-22.1,1.2-33.1,1.3c-46,0-91.9,0-137.9,0c-9-0.1-18.1,0.4-27-0.9
		c-13.3-1.7-26.2-5.9-38-12.3c-9.5-5.1-20.3-8.1-31.1-8.4c-19.4-0.1-38.7,0-58.1-0.1C1593.1,519,1598.5,505.7,1603.6,492.3z"/>
</g>
</svg>
